<?xml version="1.0" standalone="no"?>
<!DOCTYPE svg PUBLIC "-//W3C//DTD SVG 20010904//EN"
 "http://www.w3.org/TR/2001/REC-SVG-20010904/DTD/svg10.dtd">
<svg version="1.0" xmlns="http://www.w3.org/2000/svg"
 width="638.000000pt" height="638.000000pt" viewBox="0 0 638.000000 638.000000"
 preserveAspectRatio="xMidYMid meet">
<metadata>
Created by potrace 1.14, written by Peter Selinger 2001-2017
</metadata>
<g transform="translate(0.000000,638.000000) scale(0.100000,-0.100000)"
fill="#000000" stroke="none">
<path d="M1880 6328 c-93 -39 -309 -149 -415 -213 -415 -248 -786 -590 -1048
-967 -139 -199 -277 -448 -347 -622 l-31 -80 295 -295 c162 -163 414 -416 560
-563 146 -148 267 -268 269 -268 2 0 3 10 3 23 2 126 51 368 102 514 223 624
723 1100 1354 1288 48 14 98 28 110 31 164 32 292 53 334 54 15 0 -137 159
-540 565 -309 311 -563 565 -566 564 -3 0 -39 -15 -80 -31z"/>
<path d="M3881 5793 c-309 -306 -560 -557 -558 -559 1 -1 25 -5 52 -8 113 -14
144 -18 230 -37 262 -56 532 -172 740 -317 44 -31 85 -60 90 -64 251 -204 424
-408 563 -665 102 -188 160 -357 207 -602 6 -30 14 -101 21 -170 2 -30 6 -56
7 -57 1 -1 255 249 565 556 l563 559 -36 88 c-281 679 -803 1262 -1475 1645
-106 61 -281 148 -298 148 -4 1 -25 9 -47 20 -22 11 -45 19 -52 20 -6 0 -264
-250 -572 -557z"/>
<path d="M594 2520 l-561 -559 20 -48 c45 -111 115 -259 160 -338 66 -116 74
-131 122 -205 45 -70 205 -291 229 -316 6 -6 29 -33 51 -60 159 -195 345 -367
605 -561 175 -130 558 -338 711 -386 12 -4 185 162 578 552 308 306 561 559
561 562 0 3 -25 7 -55 8 -30 1 -62 3 -72 5 -10 2 -43 7 -73 12 -30 4 -57 8
-60 9 -3 1 -23 5 -45 9 -418 83 -847 348 -1136 701 -220 270 -358 561 -428
905 -19 93 -36 217 -34 253 0 9 -2 17 -6 17 -3 0 -258 -252 -567 -560z"/>
<path d="M5229 3065 c-2 -29 -5 -64 -13 -120 -11 -77 -16 -105 -32 -175 -9
-36 -17 -73 -19 -84 -30 -142 -187 -496 -267 -601 -4 -5 -41 -55 -82 -111 -74
-102 -215 -251 -316 -336 -74 -62 -237 -178 -250 -178 -5 0 -10 -3 -10 -7 0
-5 -10 -13 -23 -19 -12 -6 -67 -34 -122 -61 -55 -28 -130 -62 -166 -77 -84
-32 -288 -91 -352 -100 -27 -4 -59 -9 -70 -12 -20 -4 -50 -8 -152 -19 -16 -1
-34 -3 -40 -4 -5 0 244 -255 554 -565 l563 -564 117 51 c513 224 939 549 1278
973 48 61 96 121 106 135 82 114 110 156 159 234 101 164 258 480 258 518 0 6
-248 259 -551 563 -304 304 -555 558 -560 566 -7 10 -9 8 -10 -7z"/>
</g>
</svg>
